<?xml version="1.0" standalone="no"?>
<!DOCTYPE svg PUBLIC "-//W3C//DTD SVG 20010904//EN"
 "http://www.w3.org/TR/2001/REC-SVG-20010904/DTD/svg10.dtd">
<svg version="1.0" xmlns="http://www.w3.org/2000/svg"
 width="507.000000pt" height="507.000000pt" viewBox="0 0 507.000000 507.000000"
 preserveAspectRatio="xMidYMid meet">
<metadata>
Created by potrace 1.14, written by Peter Selinger 2001-2017
</metadata>
<g transform="translate(0.000000,507.000000) scale(0.100000,-0.100000)"
fill="#000000" stroke="none">
<path d="M2360 5053 c-120 -10 -329 -45 -451 -77 -706 -181 -1303 -663 -1630
-1317 -132 -262 -221 -567 -254 -869 -12 -114 -14 -460 -2 -515 4 -20 11 -67
23 -160 10 -81 79 -342 118 -450 84 -229 241 -508 396 -707 61 -78 262 -287
340 -353 332 -285 810 -506 1230 -570 150 -23 207 -27 370 -30 263 -4 466 22
716 90 540 148 1033 490 1366 945 260 356 423 781 472 1230 13 118 14 435 2
520 -3 19 -8 55 -11 80 -3 25 -12 81 -21 125 -198 1042 -1010 1843 -2054 2026
-159 28 -461 43 -610 32z"/>
</g>
</svg>
